<svg xmlns="http://www.w3.org/2000/svg" width="174.16" height="356.41" viewBox="0 0 174.16 356.41">
  <g id="Layer_2" data-name="Layer 2" transform="translate(0)" opacity="0.51">
    <g id="Layer_1" data-name="Layer 1">
      <path id="Path_461" data-name="Path 461" d="M0,354.51v1.9q4.64,0,9.21-.24Q4.57,355.45,0,354.51Z" fill="#0037b0"/>
      <path id="Path_462" data-name="Path 462" d="M39.19,346.37A181.678,181.678,0,0,1,0,342.11v3.05a184.839,184.839,0,0,0,39.19,4.19q6,0,11.94-.4,6.3-1.87,12.41-4.22a182.177,182.177,0,0,1-24.35,1.64Z" fill="#0037b0"/>
      <path id="Path_463" data-name="Path 463" d="M0,2.27C3.19,1.51,6.41.83,9.65.26Q4.87,0,0,0Z" fill="#0037b0"/>
      <path id="Path_464" data-name="Path 464" d="M39.19,334.24A169.14,169.14,0,0,1,0,329.66v3.06a172.48,172.48,0,0,0,98.62-6.08q5.4-3.6,10.52-7.57a167.55,167.55,0,0,1-69.95,15.17Z" fill="#0037b0"/>
      <path id="Path_465" data-name="Path 465" d="M39.19,322.12A156.889,156.889,0,0,1,0,317.17v3.08a160.262,160.262,0,0,0,39.19,4.84,157.82,157.82,0,0,0,99.46-34.95q4.48-5.53,8.52-11.43A155.09,155.09,0,0,1,39.19,322.12Z" fill="#0037b0"/>
      <path id="Path_466" data-name="Path 466" d="M0,11.68v3.08a157.6,157.6,0,0,1,63.65-3q-6.52-2.51-13.3-4.5c-3.7-.25-7.42-.39-11.16-.39A159.789,159.789,0,0,0,0,11.68Z" fill="#0037b0"/>
      <path id="Path_467" data-name="Path 467" d="M141,267.78A144.11,144.11,0,0,1,0,304.49v3.09a147,147,0,0,0,169-72.66,179.271,179.271,0,0,0,5.16-18.81A143.09,143.09,0,0,1,141,267.78Z" fill="#0037b0"/>
      <path id="Path_468" data-name="Path 468" d="M0,24.35v3.09a144.4,144.4,0,0,1,121.26,20.2,176,176,0,0,0-14.77-12.33A147.69,147.69,0,0,0,0,24.35Z" fill="#0037b0"/>
      <path id="Path_469" data-name="Path 469" d="M134.54,261.31c52.57-52.57,52.57-138.12,0-190.7A135,135,0,0,0,0,37v3.11A132,132,0,0,1,132.43,72.72c51.42,51.41,51.42,135.07,0,186.49A132,132,0,0,1,0,291.85V295a135,135,0,0,0,134.54-33.69Z" fill="#0037b0"/>
      <path id="Path_470" data-name="Path 470" d="M126,252.74A122.71,122.71,0,0,0,0,49.69v3.14A119.74,119.74,0,1,1,0,279.1v3.14a122.86,122.86,0,0,0,126-29.5Z" fill="#0037b0"/>
      <path id="Path_471" data-name="Path 471" d="M117.39,244.17A110.6,110.6,0,0,0,0,62.54v3.2A107.62,107.62,0,1,1,0,266.19v3.19a110.74,110.74,0,0,0,117.39-25.21Z" fill="#0037b0"/>
      <path id="Path_472" data-name="Path 472" d="M108.82,235.6A98.48,98.48,0,0,0,0,75.62v3.26A95.5,95.5,0,1,1,9.7,256.79q-3.55.43-7.22.55A98.64,98.64,0,0,0,108.82,235.6Z" fill="#0037b0"/>
      <path id="Path_473" data-name="Path 473" d="M100.25,227A86.34,86.34,0,0,0,0,89v3.34A83.37,83.37,0,1,1,35.05,249.2c-1.83.91-3.7,1.74-5.61,2.51A86.22,86.22,0,0,0,100.25,227Z" fill="#0037b0"/>
      <path id="Path_474" data-name="Path 474" d="M91.67,218.45A74.22,74.22,0,0,0,6.57,99.3c1.94.16,3.86.37,5.75.67A71.24,71.24,0,1,1,54.6,235.49c-1.38,1.32-2.8,2.61-4.28,3.83a73.77,73.77,0,0,0,41.35-20.87Z" fill="#0037b0"/>
      <path id="Path_475" data-name="Path 475" d="M83.1,209.88a62.07,62.07,0,0,0-53.73-105.2c1.82.73,3.61,1.51,5.36,2.37A59.11,59.11,0,0,1,69,217c-1,1.69-2,3.35-3,5a62,62,0,0,0,17.1-12.12Z" fill="#0037b0"/>
      <path id="Path_476" data-name="Path 476" d="M74.53,130.62a49.72,49.72,0,0,0-23.94-13.3q2.65,2.22,5.12,4.65a47,47,0,0,1,22.14,70.71c-.43,2.3-.95,4.57-1.58,6.79A50,50,0,0,0,74.53,130.62Z" fill="#0037b0"/>
    </g>
  </g>
</svg>
