<svg xmlns="http://www.w3.org/2000/svg" xmlns:xlink="http://www.w3.org/1999/xlink" width="1366" height="768" viewBox="0 0 1366 768"><defs><clipPath id="b"><rect width="1366" height="768"/></clipPath></defs><g id="a" clip-path="url(#b)"><rect width="1366" height="768" fill="rgba(41,123,250,0)"/><path d="M-1916,243a32.793,32.793,0,0,1-12.845-2.593,32.893,32.893,0,0,1-10.49-7.072,32.892,32.892,0,0,1-7.072-10.49A32.793,32.793,0,0,1-1949,210a32.793,32.793,0,0,1,2.593-12.845,32.891,32.891,0,0,1,7.072-10.489,32.891,32.891,0,0,1,10.49-7.072A32.794,32.794,0,0,1-1916,177a32.794,32.794,0,0,1,12.845,2.593,32.892,32.892,0,0,1,10.489,7.072,32.893,32.893,0,0,1,7.072,10.489A32.8,32.8,0,0,1-1883,210a32.8,32.8,0,0,1-2.593,12.845,32.893,32.893,0,0,1-7.072,10.49,32.893,32.893,0,0,1-10.489,7.072A32.793,32.793,0,0,1-1916,243Zm0-58.575A25.6,25.6,0,0,0-1941.575,210,25.6,25.6,0,0,0-1916,235.575,25.6,25.6,0,0,0-1890.425,210,25.6,25.6,0,0,0-1916,184.425Z" transform="translate(2396 405)" fill="#80c0fc"/><circle cx="145" cy="145" r="145" transform="translate(-140 358)" fill="#0057e4"/><g transform="translate(-611 90)" opacity="0.7"><g transform="translate(888 581)"><path d="M236.11,97l-.25.24h3.42q3.57-3.66,6.89-7.49V85.93Q241.42,91.64,236.11,97ZM0,85.93v3.79q3.3,3.84,6.88,7.49h3.43L10.06,97C6.51,93.42,3.17,89.74,0,85.93Zm17.65,3.44A150.4,150.4,0,0,1,0,68.14v4.25A153.71,153.71,0,0,0,15.92,91.1q3.17,3.16,6.49,6.11h3.7c-2.9-2.49-5.73-5.1-8.46-7.84Zm210.86,0q-4.09,4.11-8.46,7.84h3.71q3.31-3,6.48-6.11a152.824,152.824,0,0,0,15.92-18.71V68.14a149.049,149.049,0,0,1-17.65,21.23Zm-7.59-7.59a139.071,139.071,0,0,1-18.31,15.43h4.17a143.351,143.351,0,0,0,15.87-13.7,141.19,141.19,0,0,0,23.51-31.08V47.26a138.26,138.26,0,0,1-25.24,34.52Zm-195.68,0A138.759,138.759,0,0,1,0,47.26v5.17A140.921,140.921,0,0,0,23.52,83.51a142.441,142.441,0,0,0,15.87,13.7h4.17A139.8,139.8,0,0,1,25.24,81.78Zm7.6-7.59A126.8,126.8,0,0,1,0,17.81v8.32A129.56,129.56,0,0,0,31.11,75.92,130.45,130.45,0,0,0,59,97.21h5.13A127.72,127.72,0,0,1,32.84,74.19Zm180.49,0a127.77,127.77,0,0,1-31.34,23h5.14A131,131,0,0,0,215.06,75.9a129.42,129.42,0,0,0,31.1-49.79v-8.3a126.69,126.69,0,0,1-32.83,56.38Z" fill="#fff"/><path d="M151.88,97.21h8.69A119.63,119.63,0,0,0,241.3,0h-2.46a117.19,117.19,0,0,1-86.96,97.21ZM7.33,0H4.86A119.65,119.65,0,0,0,85.6,97.21h8.69A117.17,117.17,0,0,1,7.33,0Z" fill="#fff"/><path d="M123.08,90.07A106.29,106.29,0,0,1,18.17,0H15.7A108.73,108.73,0,0,0,123.08,92.51,108.73,108.73,0,0,0,230.46,0H228A106.31,106.31,0,0,1,123.08,90.07Z" fill="#fff"/><path d="M123.08,79.33A95.54,95.54,0,0,1,29.05,0H26.57a98,98,0,0,0,96.51,81.78A98,98,0,0,0,219.59,0h-2.47A95.55,95.55,0,0,1,123.08,79.33Z" fill="#fff"/><path d="M123.08,68.6A84.79,84.79,0,0,1,40,0H37.47a87.25,87.25,0,0,0,85.61,71A87.23,87.23,0,0,0,208.69,0h-2.48a84.81,84.81,0,0,1-83.13,68.6Z" fill="#fff"/><path d="M123.08,57.86A74,74,0,0,1,50.94,0H48.42a76.5,76.5,0,0,0,74.66,60.31A76.49,76.49,0,0,0,197.74,0h-2.51a74,74,0,0,1-72.15,57.86Z" fill="#fff"/><path d="M123.08,47.13A63.29,63.29,0,0,1,62,0H59.45a65.73,65.73,0,0,0,63.63,49.57A65.74,65.74,0,0,0,186.72,0H184.2a63.3,63.3,0,0,1-61.12,47.13Z" fill="#fff"/><path d="M123.08,36.4A52.55,52.55,0,0,1,73.15,0H70.59a55,55,0,0,0,52.49,38.84A55,55,0,0,0,175.58,0H173A52.55,52.55,0,0,1,123.08,36.4Z" fill="#fff"/><path d="M123.08,28.1A44.23,44.23,0,0,0,164.21,0h-2.63a41.78,41.78,0,0,1-38.5,25.66A41.8,41.8,0,0,1,84.58,0H82a44.21,44.21,0,0,0,41.08,28.1Z" fill="#fff"/><path d="M123.08,17.37A33.46,33.46,0,0,0,152.39,0h-2.82a31,31,0,0,1-26.49,14.93A31,31,0,0,1,96.59,0H93.77a33.47,33.47,0,0,0,29.31,17.37Z" fill="#fff"/><path d="M123.08,6.63A22.61,22.61,0,0,0,139.1,0h-3.7a20.2,20.2,0,0,1-12.32,4.19A20.15,20.15,0,0,1,110.77,0h-3.71a22.63,22.63,0,0,0,16.02,6.63Z" fill="#fff"/></g></g><g transform="translate(1288.889 379.629) rotate(30)"><path d="M73.62,132.51a58.89,58.89,0,1,1,117.78,0H265a132.5,132.5,0,1,0-265.01,0Z" fill="#80c0fc"/></g><g transform="translate(5 1)"><rect width="123" height="49" transform="translate(778 196)" fill="#0234b9" opacity="0.7"/><g transform="translate(711.932 204.927)" opacity="0.7"><path d="M74.419,15.6c-5.128,0-7.743-3.394-9.648-5.867s-2.8-3.407-4.635-3.407-2.733.933-4.635,3.4S50.98,15.6,45.852,15.6,38.114,12.2,36.208,9.725s-2.8-3.4-4.635-3.4-2.733.933-4.635,3.407S22.422,15.6,17.294,15.6,9.556,12.2,7.645,9.725s-2.791-3.4-4.631-3.4A3.165,3.165,0,1,1,3.015,0c5.124,0,7.738,3.394,9.644,5.872s2.8,3.4,4.635,3.4,2.729-.933,4.631-3.4S26.445,0,31.573,0s7.738,3.394,9.653,5.872,2.8,3.4,4.635,3.4,2.725-.911,4.609-3.4S55.007,0,60.153,0,67.891,3.391,69.8,5.869s2.791,3.4,4.635,3.4,2.729-.933,4.635-3.4S83.574,0,88.7,0a3.165,3.165,0,1,1,0,6.325c-1.84,0-2.729.933-4.635,3.407S79.547,15.6,74.419,15.6Z" fill="#00f2ff"/></g></g><g transform="translate(1075.73 638.05) rotate(90)" opacity="0.7"><path d="M131.47,132.78v-.36l-.18.18.18.18Z" fill="#fff"/><path d="M131.11,132.78l.18-.18-.18-.18v.36Zm.36-128.32v3c1.78-2.08,3.64-4.11,5.6-6.06L138.49,0h-2.81Q133.51,2.17,131.47,4.46Zm0,13.92v3.46A94.931,94.931,0,0,1,151.72,0h-3.13a96.94,96.94,0,0,0-17.12,18.38Zm0,107.62v3.47c.41.57.83,1.14,1.25,1.7l1.4-1.4C133.21,128.53,132.33,127.28,131.47,126Zm0-90.92v4.63A85.87,85.87,0,0,1,167.08,0h-3.8a88,88,0,0,0-31.81,35.08Zm0,73.06v4.62A88.22,88.22,0,0,0,138.89,125l1.41-1.41a85.081,85.081,0,0,1-8.83-15.45ZM259.27,4.62l1.41-1.41Q258.36,1.53,255.92,0h-3.8a84.673,84.673,0,0,1,7.15,4.62Z" fill="#fff"/><path d="M131.47,65V82.84a78.2,78.2,0,0,0,13.61,36l1.41-1.41A76.62,76.62,0,0,1,189.25,0h-6.47a78.85,78.85,0,0,0-51.31,65ZM253.08,10.81l1.41-1.41A78.331,78.331,0,0,0,236.42,0H230a76.46,76.46,0,0,1,23.08,10.81Z" fill="#fff"/><path d="M209.6,3.92a70,70,0,0,0-58.32,108.69l1.42-1.42A68,68,0,0,1,246.87,17l1.42-1.41A69.55,69.55,0,0,0,209.6,3.92Z" fill="#fff"/><path d="M209.6,12.54a61.35,61.35,0,0,0-52.08,93.83l1.43-1.43a59.39,59.39,0,0,1,81.67-81.67l1.43-1.43a61,61,0,0,0-32.45-9.3Z" fill="#fff"/><path d="M209.6,21.17a52.71,52.71,0,0,0-45.78,78.9l1.44-1.43a50.75,50.75,0,0,1,69.05-69.06l1.44-1.44a52.44,52.44,0,0,0-26.15-6.97Z" fill="#fff"/><path d="M209.6,29.8a44.1,44.1,0,0,0-39.42,63.91l1.46-1.46A42.16,42.16,0,0,1,227.93,36l1.46-1.46A43.89,43.89,0,0,0,209.6,29.8Z" fill="#fff"/><path d="M209.6,38.43A35.49,35.49,0,0,0,176.69,87.2l1.52-1.51a33.51,33.51,0,0,1,43.15-43.16L222.88,41a35.38,35.38,0,0,0-13.28-2.57Z" fill="#fff"/><path d="M209.6,47.06a26.85,26.85,0,0,0-26.08,33.31l1.65-1.65a24.419,24.419,0,0,1-.47-4.8A24.93,24.93,0,0,1,209.6,49a25.28,25.28,0,0,1,4.8.47l1.65-1.65a26.931,26.931,0,0,0-6.45-.76Z" fill="#fff"/><path d="M191.43,72.46l2.35-2.35a16.31,16.31,0,0,1,12-12l2.36-2.36a18.25,18.25,0,0,0-16.71,16.71ZM122.39,123.7l1.97,1.96V0h-1.97Zm-10.2-10.2,1.97,1.96V0h-1.97Zm-10.2-10.2,1.97,1.97V0h-1.97ZM91.79,93.1l1.97,1.96V0H91.79V93.1ZM81.59,82.9l1.97,1.97V0H81.59V82.9ZM71.4,72.7l1.96,1.97V0H71.4ZM61.2,62.5l1.96,1.97V0H61.2ZM51,52.3l1.96,1.97V0H51ZM40.8,42.1l1.96,1.97V0H40.8ZM30.6,31.9l1.96,1.97V0H30.6ZM20.4,21.7l1.96,1.97V0H20.4ZM10.2,11.51l1.96,1.96V0H10.2ZM1.97,0H0V1.31L1.97,3.27Z" fill="#fff"/></g><g transform="translate(1370.73 116.05) rotate(90)" opacity="0.7"><path d="M131.47,132.78v-.36l-.18.18.18.18Z" fill="#fff"/><path d="M131.11,132.78l.18-.18-.18-.18v.36Zm.36-128.32v3c1.78-2.08,3.64-4.11,5.6-6.06L138.49,0h-2.81Q133.51,2.17,131.47,4.46Zm0,13.92v3.46A94.931,94.931,0,0,1,151.72,0h-3.13a96.94,96.94,0,0,0-17.12,18.38Zm0,107.62v3.47c.41.57.83,1.14,1.25,1.7l1.4-1.4C133.21,128.53,132.33,127.28,131.47,126Zm0-90.92v4.63A85.87,85.87,0,0,1,167.08,0h-3.8a88,88,0,0,0-31.81,35.08Zm0,73.06v4.62A88.22,88.22,0,0,0,138.89,125l1.41-1.41a85.081,85.081,0,0,1-8.83-15.45ZM259.27,4.62l1.41-1.41Q258.36,1.53,255.92,0h-3.8a84.673,84.673,0,0,1,7.15,4.62Z" fill="#fff"/><path d="M131.47,65V82.84a78.2,78.2,0,0,0,13.61,36l1.41-1.41A76.62,76.62,0,0,1,189.25,0h-6.47a78.85,78.85,0,0,0-51.31,65ZM253.08,10.81l1.41-1.41A78.331,78.331,0,0,0,236.42,0H230a76.46,76.46,0,0,1,23.08,10.81Z" fill="#fff"/><path d="M209.6,3.92a70,70,0,0,0-58.32,108.69l1.42-1.42A68,68,0,0,1,246.87,17l1.42-1.41A69.55,69.55,0,0,0,209.6,3.92Z" fill="#fff"/><path d="M209.6,12.54a61.35,61.35,0,0,0-52.08,93.83l1.43-1.43a59.39,59.39,0,0,1,81.67-81.67l1.43-1.43a61,61,0,0,0-32.45-9.3Z" fill="#fff"/><path d="M209.6,21.17a52.71,52.71,0,0,0-45.78,78.9l1.44-1.43a50.75,50.75,0,0,1,69.05-69.06l1.44-1.44a52.44,52.44,0,0,0-26.15-6.97Z" fill="#fff"/><path d="M209.6,29.8a44.1,44.1,0,0,0-39.42,63.91l1.46-1.46A42.16,42.16,0,0,1,227.93,36l1.46-1.46A43.89,43.89,0,0,0,209.6,29.8Z" fill="#fff"/><path d="M209.6,38.43A35.49,35.49,0,0,0,176.69,87.2l1.52-1.51a33.51,33.51,0,0,1,43.15-43.16L222.88,41a35.38,35.38,0,0,0-13.28-2.57Z" fill="#fff"/><path d="M209.6,47.06a26.85,26.85,0,0,0-26.08,33.31l1.65-1.65a24.419,24.419,0,0,1-.47-4.8A24.93,24.93,0,0,1,209.6,49a25.28,25.28,0,0,1,4.8.47l1.65-1.65a26.931,26.931,0,0,0-6.45-.76Z" fill="#fff"/><path d="M191.43,72.46l2.35-2.35a16.31,16.31,0,0,1,12-12l2.36-2.36a18.25,18.25,0,0,0-16.71,16.71ZM122.39,123.7l1.97,1.96V0h-1.97Zm-10.2-10.2,1.97,1.96V0h-1.97Zm-10.2-10.2,1.97,1.97V0h-1.97ZM91.79,93.1l1.97,1.96V0H91.79V93.1ZM81.59,82.9l1.97,1.97V0H81.59V82.9ZM71.4,72.7l1.96,1.97V0H71.4ZM61.2,62.5l1.96,1.97V0H61.2ZM51,52.3l1.96,1.97V0H51ZM40.8,42.1l1.96,1.97V0H40.8ZM30.6,31.9l1.96,1.97V0H30.6ZM20.4,21.7l1.96,1.97V0H20.4ZM10.2,11.51l1.96,1.96V0H10.2ZM1.97,0H0V1.31L1.97,3.27Z" fill="#fff"/></g></g></svg>