<svg xmlns="http://www.w3.org/2000/svg" width="189.336" height="49" viewBox="0 0 189.336 49"><g transform="translate(-711.664 -196)"><rect width="123" height="49" transform="translate(778 196)" fill="#0234b9" opacity="0.7"/><g transform="translate(711.932 204.927)" opacity="0.7"><path d="M74.419,15.6c-5.128,0-7.743-3.394-9.648-5.867s-2.8-3.407-4.635-3.407-2.733.933-4.635,3.4S50.98,15.6,45.852,15.6,38.114,12.2,36.208,9.725s-2.8-3.4-4.635-3.4-2.733.933-4.635,3.407S22.422,15.6,17.294,15.6,9.556,12.2,7.645,9.725s-2.791-3.4-4.631-3.4A3.165,3.165,0,1,1,3.015,0c5.124,0,7.738,3.394,9.644,5.872s2.8,3.4,4.635,3.4,2.729-.933,4.631-3.4S26.445,0,31.573,0s7.738,3.394,9.653,5.872,2.8,3.4,4.635,3.4,2.725-.911,4.609-3.4S55.007,0,60.153,0,67.891,3.391,69.8,5.869s2.791,3.4,4.635,3.4,2.729-.933,4.635-3.4S83.574,0,88.7,0a3.165,3.165,0,1,1,0,6.325c-1.84,0-2.729.933-4.635,3.407S79.547,15.6,74.419,15.6Z" fill="#00f2ff"/></g></g></svg>