<svg xmlns="http://www.w3.org/2000/svg" width="18.35" height="18.346" viewBox="0 0 18.35 18.346"><path d="M9.1,36.294a4.7,4.7,0,1,0,4.7,4.7A4.7,4.7,0,0,0,9.1,36.294Zm0,7.762A3.058,3.058,0,1,1,12.16,41,3.064,3.064,0,0,1,9.1,44.056ZM15.1,36.1A1.1,1.1,0,1,1,14,35,1.095,1.095,0,0,1,15.1,36.1Zm3.115,1.113a5.429,5.429,0,0,0-1.482-3.844,5.465,5.465,0,0,0-3.844-1.482c-1.515-.086-6.055-.086-7.569,0a5.457,5.457,0,0,0-3.844,1.478A5.447,5.447,0,0,0-.011,37.211c-.086,1.515-.086,6.055,0,7.569a5.429,5.429,0,0,0,1.482,3.844,5.472,5.472,0,0,0,3.844,1.482c1.515.086,6.055.086,7.569,0a5.429,5.429,0,0,0,3.844-1.482,5.465,5.465,0,0,0,1.482-3.844C18.3,43.266,18.3,38.73,18.211,37.215Zm-1.957,9.19A3.1,3.1,0,0,1,14.51,48.15c-1.208.479-4.073.368-5.408.368s-4.2.106-5.408-.368A3.1,3.1,0,0,1,1.95,46.406C1.471,45.2,1.582,42.333,1.582,41s-.106-4.2.368-5.408a3.1,3.1,0,0,1,1.744-1.744c1.208-.479,4.073-.368,5.408-.368s4.2-.106,5.408.368a3.1,3.1,0,0,1,1.744,1.744c.479,1.208.368,4.073.368,5.408S16.733,45.2,16.254,46.406Z" transform="translate(0.075 -31.825)" fill="#297bfa"/></svg>