<svg xmlns="http://www.w3.org/2000/svg" width="281.25" height="280.609" viewBox="0 0 281.25 280.609"><g transform="translate(0 0.029)" opacity="0.33"><path d="M2.13,4.15a2.43,2.43,0,0,0,0-3.44A2.45,2.45,0,0,0,0,0V4.8a2.42,2.42,0,0,0,2.13-.65Z" fill="#007dfe"/><path d="M9.65,11.68a2.41,2.41,0,1,0-1.72.722A2.43,2.43,0,0,0,9.65,11.68Z" fill="#007dfe"/><path d="M13.74,15.76a2.43,2.43,0,1,0,1.72-.713A2.44,2.44,0,0,0,13.74,15.76Z" fill="#007dfe"/><path d="M21.26,23.29a2.44,2.44,0,1,0,3.45,0,2.44,2.44,0,0,0-3.45,0Z" fill="#007dfe"/><path d="M32.24,30.82a2.44,2.44,0,1,0,0,3.45,2.44,2.44,0,0,0,0-3.45Z" fill="#007dfe"/><path d="M39.77,38.35a2.44,2.44,0,1,0,0,3.44,2.44,2.44,0,0,0,0-3.44Z" fill="#007dfe"/><path d="M43.85,45.88a2.43,2.43,0,1,0,1.72-.713,2.43,2.43,0,0,0-1.72.713Z" fill="#007dfe"/><circle cx="2.44" cy="2.44" r="2.44" transform="translate(50.66 52.69)" fill="#007dfe"/><path d="M58.9,60.93a2.44,2.44,0,1,0,3.45,0,2.44,2.44,0,0,0-3.45,0Z" fill="#007dfe"/><path d="M66.43,68.46a2.44,2.44,0,1,0,3.45,0A2.44,2.44,0,0,0,66.43,68.46Z" fill="#007dfe"/><path d="M74,76a2.43,2.43,0,1,0,1.725-.718A2.44,2.44,0,0,0,74,76Z" fill="#007dfe"/><path d="M81.49,83.52a2.43,2.43,0,1,0,1.72-.713A2.43,2.43,0,0,0,81.49,83.52Z" fill="#007dfe"/><path d="M89,91a2.43,2.43,0,1,0,1.72-.713A2.44,2.44,0,0,0,89,91Z" fill="#007dfe"/><path d="M100,102a2.44,2.44,0,1,0-3.45,0,2.44,2.44,0,0,0,3.45,0Z" fill="#007dfe"/><path d="M104.07,106.1a2.44,2.44,0,1,0,3.45,0A2.44,2.44,0,0,0,104.07,106.1Z" fill="#007dfe"/><path d="M115.05,113.63a2.44,2.44,0,1,0,0,3.44,2.44,2.44,0,0,0,0-3.44Z" fill="#007dfe"/><path d="M119.13,121.16a2.43,2.43,0,1,0,1.72-.713,2.43,2.43,0,0,0-1.72.713Z" fill="#007dfe"/><path d="M126.66,128.68a2.43,2.43,0,1,0,1.72-.713A2.44,2.44,0,0,0,126.66,128.68Z" fill="#007dfe"/><path d="M2.69,18.64a2.43,2.43,0,0,0-2.69-4V19.1a2.42,2.42,0,0,0,2.69-.46Z" fill="#007dfe"/><path d="M6.77,26.17a2.44,2.44,0,1,0,0-3.44,2.44,2.44,0,0,0,0,3.44Z" fill="#007dfe"/><path d="M17.75,33.7a2.44,2.44,0,1,0-3.45,0A2.44,2.44,0,0,0,17.75,33.7Z" fill="#007dfe"/><circle cx="2.44" cy="2.44" r="2.44" transform="translate(21.11 37.07)" fill="#007dfe"/><path d="M29.36,45.31a2.44,2.44,0,1,0,3.44,0,2.44,2.44,0,0,0-3.44,0Z" fill="#007dfe"/><path d="M36.89,52.84a2.43,2.43,0,1,0,1.72-.713A2.43,2.43,0,0,0,36.89,52.84Z" fill="#007dfe"/><path d="M44.41,60.37a2.43,2.43,0,1,0,1.725-.718A2.44,2.44,0,0,0,44.41,60.37Z" fill="#007dfe"/><circle cx="2.44" cy="2.44" r="2.44" transform="translate(51.23 67.18)" fill="#007dfe"/><path d="M62.92,75.42a2.44,2.44,0,1,0,0,3.45A2.44,2.44,0,0,0,62.92,75.42Z" fill="#007dfe"/><path d="M70.44,86.4a2.43,2.43,0,1,0-1.72.713,2.44,2.44,0,0,0,1.72-.713Z" fill="#007dfe"/><path d="M74.53,90.48a2.43,2.43,0,1,0,1.72-.713A2.43,2.43,0,0,0,74.53,90.48Z" fill="#007dfe"/><path d="M82.05,98a2.43,2.43,0,1,0,1.725-.718A2.44,2.44,0,0,0,82.05,98Z" fill="#007dfe"/><path d="M89.58,105.53a2.44,2.44,0,1,0,3.45,0,2.44,2.44,0,0,0-3.45,0Z" fill="#007dfe"/><path d="M100.56,116.51a2.44,2.44,0,1,0-3.45,0A2.44,2.44,0,0,0,100.56,116.51Z" fill="#007dfe"/><circle cx="2.44" cy="2.44" r="2.44" transform="translate(103.92 119.87)" fill="#007dfe"/><path d="M115.61,128.12a2.43,2.43,0,1,0,.713,1.72A2.43,2.43,0,0,0,115.61,128.12Z" fill="#007dfe"/><path d="M123.14,135.65a2.43,2.43,0,1,0,.713,1.72A2.44,2.44,0,0,0,123.14,135.65Z" fill="#007dfe"/><path d="M3.26,33.13A2.43,2.43,0,0,0,0,29.54v3.75a2.43,2.43,0,0,0,3.26-.16Z" fill="#007dfe"/><circle cx="2.44" cy="2.44" r="2.44" transform="translate(6.62 36.5)" fill="#007dfe"/><path d="M18.32,48.19a2.44,2.44,0,1,0-3.45,0,2.44,2.44,0,0,0,3.45,0Z" fill="#007dfe"/><path d="M22.4,55.72a2.43,2.43,0,1,0-.718-1.725A2.44,2.44,0,0,0,22.4,55.72Z" fill="#007dfe"/><circle cx="2.44" cy="2.44" r="2.44" transform="translate(29.21 59.08)" fill="#007dfe"/><path d="M37.45,67.33a2.43,2.43,0,1,0,1.725-.718,2.44,2.44,0,0,0-1.725.718Z" fill="#007dfe"/><path d="M45,74.86a2.43,2.43,0,1,0,1.725-.718A2.44,2.44,0,0,0,45,74.86Z" fill="#007dfe"/><path d="M52.51,82.38a2.44,2.44,0,1,0,3.45,0,2.44,2.44,0,0,0-3.45,0Z" fill="#007dfe"/><circle cx="2.44" cy="2.44" r="2.44" transform="translate(59.32 89.19)" fill="#007dfe"/><path d="M71,97.44a2.43,2.43,0,1,0,.718,1.725A2.44,2.44,0,0,0,71,97.44Z" fill="#007dfe"/><path d="M75.09,105a2.43,2.43,0,1,0,1.725-.718A2.44,2.44,0,0,0,75.09,105Z" fill="#007dfe"/><path d="M82.62,112.5a2.43,2.43,0,1,0,1.725-.718,2.44,2.44,0,0,0-1.725.718Z" fill="#007dfe"/><path d="M90.15,120a2.44,2.44,0,1,0,3.45,0,2.44,2.44,0,0,0-3.45,0Z" fill="#007dfe"/><path d="M97.68,127.55a2.44,2.44,0,1,0,3.44,0A2.44,2.44,0,0,0,97.68,127.55Z" fill="#007dfe"/><path d="M105.21,135.08a2.43,2.43,0,1,0,1.72-.713,2.44,2.44,0,0,0-1.72.713Z" fill="#007dfe"/><path d="M112.73,142.61a2.43,2.43,0,1,0,1.725-.718A2.44,2.44,0,0,0,112.73,142.61Z" fill="#007dfe"/><path d="M.38,47.62a2.44,2.44,0,1,0,0-3.44,2.05,2.05,0,0,0-.38.51v2.42a2.05,2.05,0,0,0,.38.51Z" fill="#007dfe"/><path d="M7.91,55.15A2.43,2.43,0,1,0,7.2,53.43a2.43,2.43,0,0,0,.713,1.72Z" fill="#007dfe"/><path d="M18.88,59.23a2.43,2.43,0,1,0,.718,1.725A2.44,2.44,0,0,0,18.88,59.23Z" fill="#007dfe"/><path d="M23,70.21a2.44,2.44,0,1,0,0-3.45A2.44,2.44,0,0,0,23,70.21Z" fill="#007dfe"/><path d="M30.49,74.29a2.43,2.43,0,1,0,1.725-.718,2.44,2.44,0,0,0-1.725.718Z" fill="#007dfe"/><path d="M41.47,85.26a2.43,2.43,0,1,0-1.725.718,2.44,2.44,0,0,0,1.725-.718Z" fill="#007dfe"/><path d="M45.55,89.35a2.43,2.43,0,1,0,1.72-.713,2.43,2.43,0,0,0-1.72.713Z" fill="#007dfe"/><path d="M56.52,100.32a2.44,2.44,0,1,0-3.44,0,2.44,2.44,0,0,0,3.44,0Z" fill="#007dfe"/><path d="M60.6,104.4a2.44,2.44,0,1,0,3.45,0,2.44,2.44,0,0,0-3.45,0Z" fill="#007dfe"/><circle cx="2.44" cy="2.44" r="2.44" transform="translate(67.41 111.21)" fill="#007dfe"/><path d="M75.66,119.46a2.43,2.43,0,1,0,1.725-.718,2.44,2.44,0,0,0-1.725.718Z" fill="#007dfe"/><path d="M83.19,127a2.43,2.43,0,1,0,1.72-.713,2.43,2.43,0,0,0-1.72.713Z" fill="#007dfe"/><path d="M90.72,134.51a2.43,2.43,0,1,0,1.72-.713,2.44,2.44,0,0,0-1.72.713Z" fill="#007dfe"/><path d="M98.24,142a2.44,2.44,0,1,0,3.45,0A2.44,2.44,0,0,0,98.24,142Z" fill="#007dfe"/><path d="M105.77,149.57a2.43,2.43,0,1,0,1.725-.718,2.44,2.44,0,0,0-1.725.718Z" fill="#007dfe"/><circle cx="2.44" cy="2.44" r="2.44" transform="translate(0.23 57.95)" fill="#007dfe"/><path d="M11.92,69.64a2.44,2.44,0,1,0-3.45,0,2.44,2.44,0,0,0,3.45,0Z" fill="#007dfe"/><path d="M19.45,77.17a2.44,2.44,0,1,0-3.45,0,2.44,2.44,0,0,0,3.45,0Z" fill="#007dfe"/><path d="M27,84.7a2.44,2.44,0,1,0-3.45,0,2.44,2.44,0,0,0,3.45,0Z" fill="#007dfe"/><path d="M34.5,92.22a2.41,2.41,0,1,0-1.72.722,2.43,2.43,0,0,0,1.72-.722Z" fill="#007dfe"/><path d="M42,99.75a2.43,2.43,0,1,0-1.72.713A2.43,2.43,0,0,0,42,99.75Z" fill="#007dfe"/><path d="M46.11,103.83a2.44,2.44,0,1,0,3.45,0,2.44,2.44,0,0,0-3.45,0Z" fill="#007dfe"/><circle cx="2.44" cy="2.44" r="2.44" transform="translate(52.93 110.65)" fill="#007dfe"/><path d="M61.17,118.89a2.44,2.44,0,1,0,3.45,0,2.44,2.44,0,0,0-3.45,0Z" fill="#007dfe"/><path d="M68.7,126.42a2.43,2.43,0,1,0,1.72-.713A2.43,2.43,0,0,0,68.7,126.42Z" fill="#007dfe"/><path d="M79.67,137.39a2.43,2.43,0,1,0-1.72.713A2.43,2.43,0,0,0,79.67,137.39Z" fill="#007dfe"/><circle cx="2.44" cy="2.44" r="2.44" transform="translate(83.04 140.76)" fill="#007dfe"/><path d="M94.73,149a2.44,2.44,0,1,0,0,3.45A2.44,2.44,0,0,0,94.73,149Z" fill="#007dfe"/><path d="M102.26,156.53a2.44,2.44,0,1,0,0,3.45,2.44,2.44,0,0,0,0-3.45Z" fill="#007dfe"/><path d="M1.51,76.6a2.44,2.44,0,1,0,0-3.44,2.44,2.44,0,0,0,0,3.44Z" fill="#007dfe"/><circle cx="2.44" cy="2.44" r="2.44" transform="translate(8.32 79.97)" fill="#007dfe"/><path d="M20,91.66a2.43,2.43,0,1,0-1.72.713A2.44,2.44,0,0,0,20,91.66Z" fill="#007dfe"/><path d="M27.54,99.19a2.44,2.44,0,1,0-3.44,0A2.44,2.44,0,0,0,27.54,99.19Z" fill="#007dfe"/><path d="M35.07,106.71a2.43,2.43,0,1,0-1.72.713A2.43,2.43,0,0,0,35.07,106.71Z" fill="#007dfe"/><circle cx="2.44" cy="2.44" r="2.44" transform="translate(38.44 110.08)" fill="#007dfe"/><path d="M50.13,118.32a2.44,2.44,0,1,0,0,3.45A2.44,2.44,0,0,0,50.13,118.32Z" fill="#007dfe"/><path d="M54.21,125.85a2.44,2.44,0,1,0,3.44,0,2.44,2.44,0,0,0-3.44,0Z" fill="#007dfe"/><circle cx="2.44" cy="2.44" r="2.44" transform="translate(61.02 132.66)" fill="#007dfe"/><path d="M69.27,140.91a2.41,2.41,0,1,0,1.72-.722,2.43,2.43,0,0,0-1.72.722Z" fill="#007dfe"/><path d="M76.79,148.44a2.43,2.43,0,1,0,1.725-.718A2.44,2.44,0,0,0,76.79,148.44Z" fill="#007dfe"/><path d="M84.32,156a2.44,2.44,0,1,0,3.45,0A2.44,2.44,0,0,0,84.32,156Z" fill="#007dfe"/><circle cx="2.44" cy="2.44" r="2.44" transform="translate(91.13 162.77)" fill="#007dfe"/><path d="M2.08,91.09a2.44,2.44,0,1,0,0-3.44,2.44,2.44,0,0,0,0,3.44Z" fill="#007dfe"/><path d="M9.61,98.62A2.43,2.43,0,1,0,8.892,96.9,2.44,2.44,0,0,0,9.61,98.62Z" fill="#007dfe"/><circle cx="2.44" cy="2.44" r="2.44" transform="translate(16.42 101.98)" fill="#007dfe"/><path d="M24.66,113.68a2.44,2.44,0,1,0,0-3.45,2.44,2.44,0,0,0,0,3.45Z" fill="#007dfe"/><path d="M32.19,117.76a2.43,2.43,0,1,0,1.725-.718,2.44,2.44,0,0,0-1.725.718Z" fill="#007dfe"/><path d="M43.17,128.73a2.43,2.43,0,1,0-1.725.718,2.44,2.44,0,0,0,1.725-.718Z" fill="#007dfe"/><circle cx="2.44" cy="2.44" r="2.44" transform="translate(46.53 132.1)" fill="#007dfe"/><path d="M54.78,140.34a2.43,2.43,0,1,0,1.72-.713A2.44,2.44,0,0,0,54.78,140.34Z" fill="#007dfe"/><path d="M62.3,147.87a2.44,2.44,0,1,0,3.45,0A2.44,2.44,0,0,0,62.3,147.87Z" fill="#007dfe"/><path d="M73.28,158.84a2.43,2.43,0,1,0-1.725.718,2.44,2.44,0,0,0,1.725-.718Z" fill="#007dfe"/><path d="M77.36,162.93a2.43,2.43,0,1,0,1.725-.718,2.44,2.44,0,0,0-1.725.718Z" fill="#007dfe"/><path d="M84.89,170.45a2.44,2.44,0,1,0,3.44,0,2.44,2.44,0,0,0-3.44,0Z" fill="#007dfe"/><path d="M6.09,105.58a2.44,2.44,0,1,0-3.44,0,2.44,2.44,0,0,0,3.44,0Z" fill="#007dfe"/><path d="M13.62,113.11a2.44,2.44,0,1,0-3.45,0,2.44,2.44,0,0,0,3.45,0Z" fill="#007dfe"/><path d="M21.15,120.64a2.44,2.44,0,1,0-3.45,0,2.44,2.44,0,0,0,3.45,0Z" fill="#007dfe"/><path d="M28.68,128.16a2.43,2.43,0,1,0-1.725.718A2.44,2.44,0,0,0,28.68,128.16Z" fill="#007dfe"/><circle cx="2.44" cy="2.44" r="2.44" transform="translate(32.04 131.53)" fill="#007dfe"/><path d="M40.29,143.22a2.43,2.43,0,1,0-.718-1.725,2.44,2.44,0,0,0,.718,1.725Z" fill="#007dfe"/><path d="M47.81,150.75a2.44,2.44,0,1,0,0-3.45,2.44,2.44,0,0,0,0,3.45Z" fill="#007dfe"/><path d="M58.79,158.28a2.44,2.44,0,1,0-3.45,0,2.44,2.44,0,0,0,3.45,0Z" fill="#007dfe"/><path d="M62.87,162.36a2.43,2.43,0,1,0,1.725-.718,2.44,2.44,0,0,0-1.725.718Z" fill="#007dfe"/><path d="M73.84,169.89a2.43,2.43,0,1,0,.713,1.72A2.43,2.43,0,0,0,73.84,169.89Z" fill="#007dfe"/><path d="M77.93,177.41a2.43,2.43,0,1,0,1.72-.713,2.44,2.44,0,0,0-1.72.713Z" fill="#007dfe"/><path d="M6.66,120.07a2.44,2.44,0,1,0-3.45,0,2.44,2.44,0,0,0,3.45,0Z" fill="#007dfe"/><path d="M14.19,127.6a2.44,2.44,0,1,0-3.45,0,2.44,2.44,0,0,0,3.45,0Z" fill="#007dfe"/><path d="M21.71,135.13a2.43,2.43,0,1,0-1.72.713,2.44,2.44,0,0,0,1.72-.713Z" fill="#007dfe"/><path d="M29.24,142.65a2.43,2.43,0,1,0-1.72.713A2.43,2.43,0,0,0,29.24,142.65Z" fill="#007dfe"/><path d="M33.32,150.18a2.44,2.44,0,1,0,0-3.44A2.44,2.44,0,0,0,33.32,150.18Z" fill="#007dfe"/><circle cx="2.44" cy="2.44" r="2.44" transform="translate(40.14 153.55)" fill="#007dfe"/><path d="M51.83,165.24a2.44,2.44,0,1,0-3.45,0A2.44,2.44,0,0,0,51.83,165.24Z" fill="#007dfe"/><path d="M55.91,169.32a2.44,2.44,0,1,0,3.44,0,2.44,2.44,0,0,0-3.44,0Z" fill="#007dfe"/><path d="M66.88,180.29a2.43,2.43,0,1,0-1.72.713,2.43,2.43,0,0,0,1.72-.713Z" fill="#007dfe"/><circle cx="2.44" cy="2.44" r="2.44" transform="translate(70.25 183.66)" fill="#007dfe"/><path d="M0,124v2.7A2.42,2.42,0,0,0,0,124Z" fill="#007dfe"/><path d="M7.23,134.56a2.44,2.44,0,1,0-3.45,0,2.44,2.44,0,0,0,3.45,0Z" fill="#007dfe"/><path d="M14.75,142.09a2.44,2.44,0,1,0-3.44,0,2.44,2.44,0,0,0,3.44,0Z" fill="#007dfe"/><path d="M22.28,149.62a2.44,2.44,0,1,0-3.44,0,2.44,2.44,0,0,0,3.44,0Z" fill="#007dfe"/><path d="M29.81,157.14a2.43,2.43,0,1,0-1.725.718,2.44,2.44,0,0,0,1.725-.718Z" fill="#007dfe"/><path d="M37.34,164.67a2.43,2.43,0,1,0-1.725.718,2.44,2.44,0,0,0,1.725-.718Z" fill="#007dfe"/><path d="M41.42,172.2a2.44,2.44,0,1,0,0-3.45,2.44,2.44,0,0,0,0,3.45Z" fill="#007dfe"/><circle cx="2.44" cy="2.44" r="2.44" transform="translate(48.23 175.56)" fill="#007dfe"/><path d="M56.48,183.81a2.43,2.43,0,1,0,1.72-.713,2.44,2.44,0,0,0-1.72.713Z" fill="#007dfe"/><path d="M67.45,194.78a2.43,2.43,0,1,0-1.725.719,2.44,2.44,0,0,0,1.725-.719Z" fill="#007dfe"/><path d="M.26,138.08a1.779,1.779,0,0,0-.26-.22v3.88a2.75,2.75,0,0,0,.26-.22,2.41,2.41,0,0,0,.722-1.72,2.41,2.41,0,0,0-.722-1.72Z" fill="#007dfe"/><path d="M7.79,149.05a2.44,2.44,0,1,0-3.44,0,2.44,2.44,0,0,0,3.44,0Z" fill="#007dfe"/><path d="M11.87,156.58a2.44,2.44,0,1,0,0-3.45A2.44,2.44,0,0,0,11.87,156.58Z" fill="#007dfe"/><path d="M19.4,164.1a2.43,2.43,0,1,0-.713-1.72,2.44,2.44,0,0,0,.713,1.72Z" fill="#007dfe"/><path d="M30.38,171.63a2.43,2.43,0,1,0-1.725.719,2.44,2.44,0,0,0,1.725-.719Z" fill="#007dfe"/><path d="M37.9,179.16a2.41,2.41,0,1,0-1.72.722,2.43,2.43,0,0,0,1.72-.722Z" fill="#007dfe"/><path d="M45.43,186.69a2.44,2.44,0,1,0-3.44,0,2.44,2.44,0,0,0,3.44,0Z" fill="#007dfe"/><path d="M53,190.77a2.44,2.44,0,1,0,0,3.45,2.44,2.44,0,0,0,0-3.45Z" fill="#007dfe"/><path d="M60.49,198.3a2.44,2.44,0,1,0,0,3.44A2.44,2.44,0,0,0,60.49,198.3Z" fill="#007dfe"/><path d="M.83,156a2.44,2.44,0,0,0,0-3.45A2.48,2.48,0,0,0,0,152v4.53A2.48,2.48,0,0,0,.83,156Z" fill="#007dfe"/><path d="M8.36,163.54a2.44,2.44,0,1,0-3.45,0,2.44,2.44,0,0,0,3.45,0Z" fill="#007dfe"/><path d="M12.44,171.07a2.44,2.44,0,1,0,0-3.45,2.44,2.44,0,0,0,0,3.45Z" fill="#007dfe"/><path d="M20,178.59a2.41,2.41,0,1,0-.722-1.72A2.43,2.43,0,0,0,20,178.59Z" fill="#007dfe"/><path d="M27.5,182.68a2.41,2.41,0,1,0,1.72-.722,2.43,2.43,0,0,0-1.72.722Z" fill="#007dfe"/><path d="M38.47,193.65a2.44,2.44,0,1,0-3.45,0,2.44,2.44,0,0,0,3.45,0Z" fill="#007dfe"/><path d="M46,197.73a2.44,2.44,0,1,0,0,3.45,2.44,2.44,0,0,0,0-3.45Z" fill="#007dfe"/><circle cx="2.44" cy="2.44" r="2.44" transform="translate(49.36 204.54)" fill="#007dfe"/><path d="M1.4,167.05a2.47,2.47,0,0,0-1.4-.68v4.81a2.47,2.47,0,0,0,1.4-.68,2.44,2.44,0,0,0,0-3.45Z" fill="#007dfe"/><path d="M5.48,174.58a2.44,2.44,0,1,0,3.44,0,2.44,2.44,0,0,0-3.44,0Z" fill="#007dfe"/><path d="M16.45,185.56a2.44,2.44,0,1,0-3.44,0,2.44,2.44,0,0,0,3.44,0Z" fill="#007dfe"/><path d="M24,193.08a2.43,2.43,0,1,0-1.72.713A2.43,2.43,0,0,0,24,193.08Z" fill="#007dfe"/><circle cx="2.44" cy="2.44" r="2.44" transform="translate(27.35 196.45)" fill="#007dfe"/><path d="M39,208.14a2.44,2.44,0,1,0-3.45,0,2.44,2.44,0,0,0,3.45,0Z" fill="#007dfe"/><path d="M46.56,215.67a2.43,2.43,0,1,0-1.72.713,2.44,2.44,0,0,0,1.72-.713Z" fill="#007dfe"/><path d="M2,185a2.432,2.432,0,0,0-2-4.14v4.83A2.4,2.4,0,0,0,2,185Z" fill="#007dfe"/><path d="M9.49,192.52a2.44,2.44,0,1,0-3.44,0,2.44,2.44,0,0,0,3.44,0Z" fill="#007dfe"/><path d="M17,200.05a2.44,2.44,0,1,0-3.45,0A2.44,2.44,0,0,0,17,200.05Z" fill="#007dfe"/><path d="M24.55,207.57a2.43,2.43,0,1,0-1.725.719,2.44,2.44,0,0,0,1.725-.719Z" fill="#007dfe"/><path d="M32.08,211.66a2.43,2.43,0,1,0,.713,1.72A2.44,2.44,0,0,0,32.08,211.66Z" fill="#007dfe"/><path d="M39.6,222.63a2.44,2.44,0,1,0-3.44,0A2.44,2.44,0,0,0,39.6,222.63Z" fill="#007dfe"/><path d="M2.53,199.48A2.434,2.434,0,0,0,0,195.46v4.59a2.44,2.44,0,0,0,2.53-.57Z" fill="#007dfe"/><path d="M6.61,207a2.44,2.44,0,1,0,0-3.45,2.44,2.44,0,0,0,0,3.45Z" fill="#007dfe"/><path d="M14.14,214.53a2.43,2.43,0,1,0-.713-1.72A2.44,2.44,0,0,0,14.14,214.53Z" fill="#007dfe"/><circle cx="2.44" cy="2.44" r="2.44" transform="translate(20.95 217.9)" fill="#007dfe"/><circle cx="2.44" cy="2.44" r="2.44" transform="translate(28.48 225.43)" fill="#007dfe"/><path d="M3.1,214A2.437,2.437,0,0,0,0,210.24v4A2.44,2.44,0,0,0,3.1,214Z" fill="#007dfe"/><path d="M10.62,221.5a2.43,2.43,0,1,0-1.72.713,2.44,2.44,0,0,0,1.72-.713Z" fill="#007dfe"/><path d="M18.15,229a2.43,2.43,0,1,0-1.72.713A2.43,2.43,0,0,0,18.15,229Z" fill="#007dfe"/><path d="M22.23,236.55a2.44,2.44,0,1,0,0-3.44,2.44,2.44,0,0,0,0,3.44Z" fill="#007dfe"/><path d="M3.66,228.46A2.44,2.44,0,1,0,.22,225a1.861,1.861,0,0,0-.22.27v2.91a2.61,2.61,0,0,0,.22.27,2.43,2.43,0,0,0,3.44.01Z" fill="#007dfe"/><path d="M11.19,236a2.44,2.44,0,1,0-3.44,0,2.44,2.44,0,0,0,3.44,0Z" fill="#007dfe"/><path d="M18.72,243.51a2.43,2.43,0,1,0-1.725.718,2.44,2.44,0,0,0,1.725-.718Z" fill="#007dfe"/><path d="M.78,239.5a2.44,2.44,0,1,0,3.45,0,2.44,2.44,0,0,0-3.45,0Z" fill="#007dfe"/><circle cx="2.44" cy="2.44" r="2.44" transform="translate(7.59 246.31)" fill="#007dfe"/><path d="M4.8,257.44a2.44,2.44,0,1,0-3.45,0,2.44,2.44,0,0,0,3.45,0Z" fill="#007dfe"/><path d="M134.13,136.39a2.43,2.43,0,1,0,1.725-.718,2.44,2.44,0,0,0-1.725.718Z" fill="#007dfe"/><path d="M145.11,143.92a2.44,2.44,0,1,0,0,3.44A2.44,2.44,0,0,0,145.11,143.92Z" fill="#007dfe"/><path d="M149.19,151.44a2.44,2.44,0,1,0,3.45,0A2.44,2.44,0,0,0,149.19,151.44Z" fill="#007dfe"/><path d="M156.72,159a2.44,2.44,0,1,0,3.44,0A2.44,2.44,0,0,0,156.72,159Z" fill="#007dfe"/><path d="M164.25,166.5a2.43,2.43,0,1,0,1.72-.713,2.44,2.44,0,0,0-1.72.713Z" fill="#007dfe"/><path d="M171.77,174a2.43,2.43,0,1,0,1.725-.718,2.44,2.44,0,0,0-1.725.718Z" fill="#007dfe"/><circle cx="2.44" cy="2.44" r="2.44" transform="translate(178.59 180.84)" fill="#007dfe"/><path d="M186.83,192.53a2.44,2.44,0,1,0,0-3.45,2.44,2.44,0,0,0,0,3.45Z" fill="#007dfe"/><path d="M197.8,200.06a2.43,2.43,0,1,0-1.72.713,2.44,2.44,0,0,0,1.72-.713Z" fill="#007dfe"/><path d="M205.33,207.59a2.44,2.44,0,1,0-3.44,0,2.44,2.44,0,0,0,3.44,0Z" fill="#007dfe"/><path d="M212.86,215.11a2.43,2.43,0,1,0-1.725.718,2.44,2.44,0,0,0,1.725-.718Z" fill="#007dfe"/><path d="M220.39,222.64a2.43,2.43,0,1,0-1.725.718,2.44,2.44,0,0,0,1.725-.718Z" fill="#007dfe"/><path d="M227.92,230.17a2.44,2.44,0,1,0-3.45,0A2.44,2.44,0,0,0,227.92,230.17Z" fill="#007dfe"/><circle cx="2.44" cy="2.44" r="2.44" transform="translate(231.28 233.54)" fill="#007dfe"/><path d="M243,245.23a2.44,2.44,0,1,0-3.44,0,2.44,2.44,0,0,0,3.44,0Z" fill="#007dfe"/><path d="M250.5,252.75a2.43,2.43,0,1,0-1.725.718,2.44,2.44,0,0,0,1.725-.718Z" fill="#007dfe"/><path d="M258,260.28a2.43,2.43,0,1,0-1.725.718A2.44,2.44,0,0,0,258,260.28Z" fill="#007dfe"/><path d="M262.11,264.36a2.44,2.44,0,1,0,3.45,0A2.44,2.44,0,0,0,262.11,264.36Z" fill="#007dfe"/><path d="M273.08,271.89a2.43,2.43,0,1,0,.719,1.725,2.44,2.44,0,0,0-.719-1.725Z" fill="#007dfe"/><path d="M127.17,143.35a2.44,2.44,0,1,0,3.45,0,2.44,2.44,0,0,0-3.45,0Z" fill="#007dfe"/><path d="M134.7,150.88a2.43,2.43,0,1,0,1.725-.718A2.44,2.44,0,0,0,134.7,150.88Z" fill="#007dfe"/><path d="M142.23,158.41a2.43,2.43,0,1,0,1.72-.713,2.43,2.43,0,0,0-1.72.713Z" fill="#007dfe"/><path d="M149.76,165.93a2.44,2.44,0,1,0,3.44,0A2.44,2.44,0,0,0,149.76,165.93Z" fill="#007dfe"/><path d="M157.28,173.46a2.44,2.44,0,1,0,3.45,0A2.44,2.44,0,0,0,157.28,173.46Z" fill="#007dfe"/><circle cx="2.44" cy="2.44" r="2.44" transform="translate(164.1 180.27)" fill="#007dfe"/><path d="M175.79,192a2.43,2.43,0,1,0-1.725.718A2.44,2.44,0,0,0,175.79,192Z" fill="#007dfe"/><path d="M183.31,199.49a2.41,2.41,0,1,0-1.72.722,2.43,2.43,0,0,0,1.72-.722Z" fill="#007dfe"/><path d="M187.4,203.57a2.44,2.44,0,1,0,3.44,0A2.44,2.44,0,0,0,187.4,203.57Z" fill="#007dfe"/><path d="M194.92,211.1a2.44,2.44,0,1,0,3.45,0A2.44,2.44,0,0,0,194.92,211.1Z" fill="#007dfe"/><path d="M205.9,222.08a2.44,2.44,0,1,0-3.45,0,2.44,2.44,0,0,0,3.45,0Z" fill="#007dfe"/><path d="M213.43,229.6a2.43,2.43,0,1,0-1.725.718,2.44,2.44,0,0,0,1.725-.718Z" fill="#007dfe"/><path d="M221,237.13a2.41,2.41,0,1,0-1.72.722,2.43,2.43,0,0,0,1.72-.722Z" fill="#007dfe"/><path d="M228.48,244.66a2.44,2.44,0,1,0-3.44,0A2.44,2.44,0,0,0,228.48,244.66Z" fill="#007dfe"/><path d="M236,252.19a2.44,2.44,0,1,0-3.45,0,2.44,2.44,0,0,0,3.45,0Z" fill="#007dfe"/><path d="M243.54,259.72a2.44,2.44,0,1,0-3.45,0A2.44,2.44,0,0,0,243.54,259.72Z" fill="#007dfe"/><circle cx="2.44" cy="2.44" r="2.44" transform="translate(246.9 263.08)" fill="#007dfe"/><path d="M255.15,271.33a2.43,2.43,0,1,0,1.72-.713,2.43,2.43,0,0,0-1.72.713Z" fill="#007dfe"/><path d="M262.68,278.85a2.47,2.47,0,0,0-.72,1.72h4.88a2.47,2.47,0,0,0-.72-1.72,2.43,2.43,0,0,0-3.44,0Z" fill="#007dfe"/><path d="M120.21,150.31a2.44,2.44,0,1,0,3.45,0,2.44,2.44,0,0,0-3.45,0Z" fill="#007dfe"/><circle cx="2.44" cy="2.44" r="2.44" transform="translate(127.02 157.12)" fill="#007dfe"/><path d="M135.27,165.37a2.43,2.43,0,1,0,1.72-.713A2.43,2.43,0,0,0,135.27,165.37Z" fill="#007dfe"/><path d="M142.8,172.9a2.41,2.41,0,1,0,1.72-.722,2.43,2.43,0,0,0-1.72.722Z" fill="#007dfe"/><path d="M150.32,180.42a2.44,2.44,0,1,0,3.45,0A2.44,2.44,0,0,0,150.32,180.42Z" fill="#007dfe"/><path d="M161.3,191.4a2.44,2.44,0,1,0-3.45,0,2.44,2.44,0,0,0,3.45,0Z" fill="#007dfe"/><path d="M168.83,198.93a2.44,2.44,0,1,0-3.45,0A2.44,2.44,0,0,0,168.83,198.93Z" fill="#007dfe"/><path d="M176.35,206.45a2.43,2.43,0,1,0-1.72.713,2.43,2.43,0,0,0,1.72-.713Z" fill="#007dfe"/><path d="M183.88,214a2.43,2.43,0,1,0-1.72.713,2.43,2.43,0,0,0,1.72-.713Z" fill="#007dfe"/><path d="M191.41,221.51a2.44,2.44,0,1,0-3.45,0,2.44,2.44,0,0,0,3.45,0Z" fill="#007dfe"/><path d="M198.94,225.59a2.44,2.44,0,1,0,0,3.45,2.44,2.44,0,0,0,0-3.45Z" fill="#007dfe"/><circle cx="2.44" cy="2.44" r="2.44" transform="translate(202.3 232.4)" fill="#007dfe"/><path d="M214,244.09a2.43,2.43,0,1,0-1.72.713,2.43,2.43,0,0,0,1.72-.713Z" fill="#007dfe"/><path d="M221.52,251.62a2.43,2.43,0,1,0-1.72.713,2.43,2.43,0,0,0,1.72-.713Z" fill="#007dfe"/><path d="M229.05,259.15a2.44,2.44,0,1,0-3.45,0A2.44,2.44,0,0,0,229.05,259.15Z" fill="#007dfe"/><path d="M233.13,263.23a2.44,2.44,0,1,0,3.45,0A2.44,2.44,0,0,0,233.13,263.23Z" fill="#007dfe"/><path d="M240.66,270.76a2.44,2.44,0,1,0,3.45,0A2.44,2.44,0,0,0,240.66,270.76Z" fill="#007dfe"/><path d="M251.63,278.29a2.43,2.43,0,0,0-4.08,2.28h4.72a2.42,2.42,0,0,0-.64-2.28Z" fill="#007dfe"/><path d="M113.25,157.27a2.44,2.44,0,1,0,3.45,0A2.44,2.44,0,0,0,113.25,157.27Z" fill="#007dfe"/><path d="M124.22,164.8a2.43,2.43,0,1,0,.718,1.725A2.44,2.44,0,0,0,124.22,164.8Z" fill="#007dfe"/><path d="M131.75,172.33a2.43,2.43,0,1,0,.713,1.72,2.43,2.43,0,0,0-.713-1.72Z" fill="#007dfe"/><path d="M139.28,183.3a2.43,2.43,0,1,0-1.725.718,2.44,2.44,0,0,0,1.725-.718Z" fill="#007dfe"/><path d="M143.36,187.39a2.43,2.43,0,1,0,1.725-.718,2.44,2.44,0,0,0-1.725.718Z" fill="#007dfe"/><path d="M154.34,198.36a2.44,2.44,0,1,0-3.45,0A2.44,2.44,0,0,0,154.34,198.36Z" fill="#007dfe"/><path d="M161.86,205.89a2.43,2.43,0,1,0-1.72.713,2.44,2.44,0,0,0,1.72-.713Z" fill="#007dfe"/><path d="M169.39,213.42a2.44,2.44,0,1,0-3.44,0A2.44,2.44,0,0,0,169.39,213.42Z" fill="#007dfe"/><path d="M176.92,220.94a2.43,2.43,0,1,0-1.725.718A2.44,2.44,0,0,0,176.92,220.94Z" fill="#007dfe"/><path d="M184.45,228.47a2.43,2.43,0,1,0-1.725.719,2.44,2.44,0,0,0,1.725-.719Z" fill="#007dfe"/><path d="M192,236a2.44,2.44,0,1,0-3.45,0,2.44,2.44,0,0,0,3.45,0Z" fill="#007dfe"/><path d="M199.5,243.53a2.43,2.43,0,1,0-1.72.713,2.44,2.44,0,0,0,1.72-.713Z" fill="#007dfe"/><path d="M207,251.05a2.43,2.43,0,1,0-1.72.713,2.43,2.43,0,0,0,1.72-.713Z" fill="#007dfe"/><circle cx="2.44" cy="2.44" r="2.44" transform="translate(210.4 254.42)" fill="#007dfe"/><path d="M218.64,262.67a2.43,2.43,0,1,0,1.725-.719,2.44,2.44,0,0,0-1.725.719Z" fill="#007dfe"/><path d="M226.17,270.19a2.44,2.44,0,1,0,3.45,0A2.44,2.44,0,0,0,226.17,270.19Z" fill="#007dfe"/><path d="M237.14,277.72a2.43,2.43,0,0,0-3.87,2.85h4.3a2.42,2.42,0,0,0-.43-2.85Z" fill="#007dfe"/><path d="M109.73,167.68a2.43,2.43,0,1,0-1.72.713,2.44,2.44,0,0,0,1.72-.713Z" fill="#007dfe"/><path d="M113.82,171.76a2.44,2.44,0,1,0,3.44,0A2.44,2.44,0,0,0,113.82,171.76Z" fill="#007dfe"/><circle cx="2.44" cy="2.44" r="2.44" transform="translate(120.63 178.57)" fill="#007dfe"/><path d="M132.32,186.82a2.44,2.44,0,1,0,0,3.44A2.44,2.44,0,0,0,132.32,186.82Z" fill="#007dfe"/><path d="M139.85,197.79a2.43,2.43,0,1,0-1.725.718A2.44,2.44,0,0,0,139.85,197.79Z" fill="#007dfe"/><path d="M143.93,201.87a2.44,2.44,0,1,0,3.44,0A2.44,2.44,0,0,0,143.93,201.87Z" fill="#007dfe"/><path d="M151.46,209.4a2.44,2.44,0,1,0,3.44,0,2.44,2.44,0,0,0-3.44,0Z" fill="#007dfe"/><path d="M159,216.93a2.44,2.44,0,1,0,3.45,0A2.44,2.44,0,0,0,159,216.93Z" fill="#007dfe"/><path d="M166.51,227.9a2.43,2.43,0,1,0-.713-1.72,2.44,2.44,0,0,0,.713,1.72Z" fill="#007dfe"/><path d="M174,235.43a2.44,2.44,0,1,0,0-3.44,2.44,2.44,0,0,0,0,3.44Z" fill="#007dfe"/><path d="M185,239.51a2.43,2.43,0,1,0,.718,1.725A2.44,2.44,0,0,0,185,239.51Z" fill="#007dfe"/><path d="M192.54,250.49a2.44,2.44,0,1,0-3.44,0A2.44,2.44,0,0,0,192.54,250.49Z" fill="#007dfe"/><path d="M200.07,258a2.44,2.44,0,1,0-3.45,0A2.44,2.44,0,0,0,200.07,258Z" fill="#007dfe"/><path d="M204.15,262.1a2.43,2.43,0,1,0,1.725-.718A2.44,2.44,0,0,0,204.15,262.1Z" fill="#007dfe"/><path d="M211.68,269.63a2.43,2.43,0,1,0,1.725-.718A2.44,2.44,0,0,0,211.68,269.63Z" fill="#007dfe"/><path d="M222.65,277.15a2.44,2.44,0,0,0-3.47,3.42h3.5A2.44,2.44,0,0,0,222.65,277.15Z" fill="#007dfe"/><path d="M99.33,171.2a2.43,2.43,0,1,0,1.72-.713A2.43,2.43,0,0,0,99.33,171.2Z" fill="#007dfe"/><circle cx="2.44" cy="2.44" r="2.44" transform="translate(106.14 178.01)" fill="#007dfe"/><path d="M117.83,189.7a2.44,2.44,0,1,0-3.45,0,2.44,2.44,0,0,0,3.45,0Z" fill="#007dfe"/><path d="M125.36,197.23a2.44,2.44,0,1,0-3.45,0A2.44,2.44,0,0,0,125.36,197.23Z" fill="#007dfe"/><path d="M132.89,204.75a2.43,2.43,0,1,0-1.725.718,2.44,2.44,0,0,0,1.725-.718Z" fill="#007dfe"/><path d="M140.41,212.28a2.43,2.43,0,1,0-1.72.713,2.43,2.43,0,0,0,1.72-.713Z" fill="#007dfe"/><path d="M144.5,216.36a2.43,2.43,0,1,0,1.72-.713,2.44,2.44,0,0,0-1.72.713Z" fill="#007dfe"/><path d="M152,223.89a2.44,2.44,0,1,0,3.45,0A2.44,2.44,0,0,0,152,223.89Z" fill="#007dfe"/><circle cx="2.44" cy="2.44" r="2.44" transform="translate(158.83 230.7)" fill="#007dfe"/><path d="M167.08,242.39a2.41,2.41,0,1,0-.722-1.72,2.43,2.43,0,0,0,.722,1.72Z" fill="#007dfe"/><path d="M174.61,246.48a2.43,2.43,0,1,0,1.72-.713,2.43,2.43,0,0,0-1.72.713Z" fill="#007dfe"/><circle cx="2.44" cy="2.44" r="2.44" transform="translate(181.42 253.29)" fill="#007dfe"/><path d="M193.11,265a2.44,2.44,0,1,0-3.45,0A2.44,2.44,0,0,0,193.11,265Z" fill="#007dfe"/><path d="M197.19,269.06a2.44,2.44,0,1,0,3.45,0A2.44,2.44,0,0,0,197.19,269.06Z" fill="#007dfe"/><path d="M208.16,276.59a2.432,2.432,0,0,0-3.44,3.44,2.4,2.4,0,0,0,.81.54h1.82a2.3,2.3,0,0,0,.81-.54,2.41,2.41,0,0,0,0-3.44Z" fill="#007dfe"/><path d="M92.37,178.16a2.41,2.41,0,1,0,1.72-.722,2.43,2.43,0,0,0-1.72.722Z" fill="#007dfe"/><circle cx="2.44" cy="2.44" r="2.44" transform="translate(99.18 184.97)" fill="#007dfe"/><path d="M107.42,193.21a2.44,2.44,0,1,0,3.45,0,2.44,2.44,0,0,0-3.45,0Z" fill="#007dfe"/><path d="M115,200.74a2.44,2.44,0,1,0,3.45,0A2.44,2.44,0,0,0,115,200.74Z" fill="#007dfe"/><path d="M125.92,211.72a2.43,2.43,0,1,0-1.72.713,2.44,2.44,0,0,0,1.72-.713Z" fill="#007dfe"/><path d="M130,215.8a2.41,2.41,0,1,0,1.72-.722A2.43,2.43,0,0,0,130,215.8Z" fill="#007dfe"/><path d="M141,226.77a2.43,2.43,0,1,0-1.725.718A2.44,2.44,0,0,0,141,226.77Z" fill="#007dfe"/><path d="M148.51,234.3a2.44,2.44,0,1,0-3.45,0A2.44,2.44,0,0,0,148.51,234.3Z" fill="#007dfe"/><path d="M156,241.83a2.44,2.44,0,1,0-3.45,0,2.44,2.44,0,0,0,3.45,0Z" fill="#007dfe"/><path d="M163.56,249.36a2.43,2.43,0,1,0-1.72.713,2.44,2.44,0,0,0,1.72-.713Z" fill="#007dfe"/><path d="M171.09,256.88a2.43,2.43,0,1,0-1.72.713,2.43,2.43,0,0,0,1.72-.713Z" fill="#007dfe"/><path d="M178.62,264.41a2.43,2.43,0,1,0-1.725.719,2.44,2.44,0,0,0,1.725-.719Z" fill="#007dfe"/><path d="M182.7,268.49a2.44,2.44,0,1,0,3.45,0A2.44,2.44,0,0,0,182.7,268.49Z" fill="#007dfe"/><path d="M190.23,276a2.44,2.44,0,1,0,3.45,0A2.44,2.44,0,0,0,190.23,276Z" fill="#007dfe"/><path d="M85.4,185.12a2.43,2.43,0,1,0,1.725-.718,2.44,2.44,0,0,0-1.725.718Z" fill="#007dfe"/><path d="M96.38,196.09a2.43,2.43,0,1,0-1.725.719A2.44,2.44,0,0,0,96.38,196.09Z" fill="#007dfe"/><circle cx="2.44" cy="2.44" r="2.44" transform="translate(99.74 199.46)" fill="#007dfe"/><path d="M111.43,207.7a2.43,2.43,0,1,0,.718,1.725,2.44,2.44,0,0,0-.718-1.725Z" fill="#007dfe"/><path d="M119,218.68a2.44,2.44,0,1,0-3.44,0A2.44,2.44,0,0,0,119,218.68Z" fill="#007dfe"/><path d="M126.49,226.2a2.43,2.43,0,1,0-1.725.719,2.44,2.44,0,0,0,1.725-.719Z" fill="#007dfe"/><path d="M134,233.73a2.43,2.43,0,1,0-1.725.718A2.44,2.44,0,0,0,134,233.73Z" fill="#007dfe"/><path d="M141.55,237.81a2.44,2.44,0,1,0,0,3.45,2.44,2.44,0,0,0,0-3.45Z" fill="#007dfe"/><path d="M149.07,245.34a2.43,2.43,0,1,0,.718,1.725,2.44,2.44,0,0,0-.718-1.725Z" fill="#007dfe"/><circle cx="2.44" cy="2.44" r="2.44" transform="translate(152.44 252.15)" fill="#007dfe"/><path d="M164.13,260.4a2.44,2.44,0,1,0,0,3.44A2.44,2.44,0,0,0,164.13,260.4Z" fill="#007dfe"/><path d="M171.66,267.93a2.44,2.44,0,1,0,0,3.44,2.44,2.44,0,0,0,0-3.44Z" fill="#007dfe"/><path d="M179.19,275.45a2.44,2.44,0,1,0,0,3.45A2.44,2.44,0,0,0,179.19,275.45Z" fill="#007dfe"/><circle cx="2.44" cy="2.44" r="2.44" transform="translate(77.73 191.36)" fill="#007dfe"/><path d="M89.42,203.05a2.43,2.43,0,1,0-1.725.718,2.44,2.44,0,0,0,1.725-.718Z" fill="#007dfe"/><path d="M93.5,207.14a2.43,2.43,0,1,0,1.72-.713A2.43,2.43,0,0,0,93.5,207.14Z" fill="#007dfe"/><path d="M101,214.66a2.44,2.44,0,1,0,3.44,0,2.44,2.44,0,0,0-3.44,0Z" fill="#007dfe"/><circle cx="2.44" cy="2.44" r="2.44" transform="translate(107.84 221.48)" fill="#007dfe"/><path d="M116.08,229.72a2.44,2.44,0,1,0,3.45,0,2.44,2.44,0,0,0-3.45,0Z" fill="#007dfe"/><path d="M127.06,240.69a2.43,2.43,0,1,0-1.725.718,2.44,2.44,0,0,0,1.725-.718Z" fill="#007dfe"/><path d="M134.58,244.78a2.41,2.41,0,1,0,.722,1.72,2.43,2.43,0,0,0-.722-1.72Z" fill="#007dfe"/><circle cx="2.44" cy="2.44" r="2.44" transform="translate(137.95 251.59)" fill="#007dfe"/><path d="M149.64,263.28a2.44,2.44,0,1,0-3.45,0A2.44,2.44,0,0,0,149.64,263.28Z" fill="#007dfe"/><path d="M153.72,270.81a2.44,2.44,0,1,0,0-3.45A2.44,2.44,0,0,0,153.72,270.81Z" fill="#007dfe"/><circle cx="2.44" cy="2.44" r="2.44" transform="translate(160.53 274.17)" fill="#007dfe"/><path d="M74.93,199a2.44,2.44,0,1,0,0,3.45,2.44,2.44,0,0,0,0-3.45Z" fill="#007dfe"/><path d="M82.46,210a2.44,2.44,0,1,0-1.73.719A2.44,2.44,0,0,0,82.46,210Z" fill="#007dfe"/><path d="M86.54,214.1a2.43,2.43,0,1,0,1.72-.713,2.43,2.43,0,0,0-1.72.713Z" fill="#007dfe"/><path d="M94.07,221.63a2.41,2.41,0,1,0,1.72-.722,2.43,2.43,0,0,0-1.72.722Z" fill="#007dfe"/><path d="M101.59,232.6a2.44,2.44,0,1,0,0-3.45,2.44,2.44,0,0,0,0,3.45Z" fill="#007dfe"/><path d="M112.57,240.13a2.44,2.44,0,1,0-3.45,0A2.44,2.44,0,0,0,112.57,240.13Z" fill="#007dfe"/><circle cx="2.44" cy="2.44" r="2.44" transform="translate(115.93 243.49)" fill="#007dfe"/><path d="M127.62,255.18a2.43,2.43,0,1,0-1.72.713,2.43,2.43,0,0,0,1.72-.713Z" fill="#007dfe"/><circle cx="2.44" cy="2.44" r="2.44" transform="translate(130.99 258.55)" fill="#007dfe"/><path d="M142.68,266.79a2.44,2.44,0,1,0,0,3.45A2.44,2.44,0,0,0,142.68,266.79Z" fill="#007dfe"/><path d="M150.21,274.32a2.44,2.44,0,1,0,0,3.45A2.44,2.44,0,0,0,150.21,274.32Z" fill="#007dfe"/><path d="M64.52,206a2.44,2.44,0,1,0,1.74-.729A2.44,2.44,0,0,0,64.52,206Z" fill="#007dfe"/><path d="M75.49,213.53a2.43,2.43,0,1,0,.718,1.725,2.44,2.44,0,0,0-.718-1.725Z" fill="#007dfe"/><path d="M83,224.5a2.43,2.43,0,1,0-1.72.713A2.43,2.43,0,0,0,83,224.5Z" fill="#007dfe"/><path d="M90.55,232a2.43,2.43,0,1,0-1.725.718A2.44,2.44,0,0,0,90.55,232Z" fill="#007dfe"/><path d="M94.63,236.12a2.43,2.43,0,1,0,1.725-.718,2.44,2.44,0,0,0-1.725.718Z" fill="#007dfe"/><path d="M105.61,247.09a2.44,2.44,0,1,0-3.45,0A2.44,2.44,0,0,0,105.61,247.09Z" fill="#007dfe"/><path d="M113.13,254.62a2.43,2.43,0,1,0-1.72.713,2.44,2.44,0,0,0,1.72-.713Z" fill="#007dfe"/><path d="M120.66,262.14a2.43,2.43,0,1,0-1.72.713A2.43,2.43,0,0,0,120.66,262.14Z" fill="#007dfe"/><path d="M124.74,266.23a2.43,2.43,0,1,0,1.725-.718A2.44,2.44,0,0,0,124.74,266.23Z" fill="#007dfe"/><circle cx="2.44" cy="2.44" r="2.44" transform="translate(131.55 273.04)" fill="#007dfe"/><path d="M141.51,280.57Z" fill="#007dfe"/><circle cx="2.44" cy="2.44" r="2.44" transform="translate(56.84 212.25)" fill="#007dfe"/><path d="M65.09,220.49a2.44,2.44,0,1,0,3.44,0A2.44,2.44,0,0,0,65.09,220.49Z" fill="#007dfe"/><path d="M76.06,228a2.44,2.44,0,1,0,0,3.45,2.44,2.44,0,0,0,0-3.45Z" fill="#007dfe"/><path d="M83.59,239a2.43,2.43,0,1,0-1.725.718A2.44,2.44,0,0,0,83.59,239Z" fill="#007dfe"/><path d="M91.12,243.08a2.44,2.44,0,1,0,0,3.44A2.44,2.44,0,0,0,91.12,243.08Z" fill="#007dfe"/><path d="M95.2,250.6a2.44,2.44,0,1,0,3.44,0A2.44,2.44,0,0,0,95.2,250.6Z" fill="#007dfe"/><path d="M106.17,261.58a2.44,2.44,0,1,0-3.44,0,2.44,2.44,0,0,0,3.44,0Z" fill="#007dfe"/><circle cx="2.44" cy="2.44" r="2.44" transform="translate(109.54 264.94)" fill="#007dfe"/><path d="M117.78,273.19a2.43,2.43,0,1,0,1.725-.718,2.44,2.44,0,0,0-1.725.718Z" fill="#007dfe"/><path d="M125.49,280.57h3.09A2.43,2.43,0,0,0,125.49,280.57Z" fill="#007dfe"/><path d="M50.6,219.93a2.43,2.43,0,1,0,1.72-.713,2.43,2.43,0,0,0-1.72.713Z" fill="#007dfe"/><path d="M58.13,227.45a2.43,2.43,0,1,0,1.72-.713,2.44,2.44,0,0,0-1.72.713Z" fill="#007dfe"/><path d="M65.65,235a2.44,2.44,0,1,0,3.45,0,2.44,2.44,0,0,0-3.45,0Z" fill="#007dfe"/><path d="M76.63,242.51a2.44,2.44,0,1,0,0,3.45,2.44,2.44,0,0,0,0-3.45Z" fill="#007dfe"/><path d="M84.16,253.48a2.43,2.43,0,1,0-1.725.718A2.44,2.44,0,0,0,84.16,253.48Z" fill="#007dfe"/><path d="M91.68,261a2.43,2.43,0,1,0-1.72.713A2.43,2.43,0,0,0,91.68,261Z" fill="#007dfe"/><circle cx="2.44" cy="2.44" r="2.44" transform="translate(95.05 264.38)" fill="#007dfe"/><path d="M103.29,272.62a2.44,2.44,0,1,0,3.45,0A2.44,2.44,0,0,0,103.29,272.62Z" fill="#007dfe"/><path d="M114.27,280.15a2.44,2.44,0,0,0-3.45,0,2.179,2.179,0,0,0-.33.42h4.11a2.651,2.651,0,0,0-.33-.42Z" fill="#007dfe"/><path d="M47.08,230.33a2.43,2.43,0,1,0-1.72.713,2.43,2.43,0,0,0,1.72-.713Z" fill="#007dfe"/><path d="M54.61,237.86a2.43,2.43,0,1,0-1.725.718,2.44,2.44,0,0,0,1.725-.718Z" fill="#007dfe"/><path d="M62.14,241.94a2.44,2.44,0,1,0,0,3.45,2.44,2.44,0,0,0,0-3.45Z" fill="#007dfe"/><path d="M69.67,252.92a2.44,2.44,0,1,0-3.45,0,2.44,2.44,0,0,0,3.45,0Z" fill="#007dfe"/><path d="M77.19,260.45a2.43,2.43,0,1,0-1.72.713A2.44,2.44,0,0,0,77.19,260.45Z" fill="#007dfe"/><path d="M84.72,268a2.43,2.43,0,1,0-1.72.713A2.43,2.43,0,0,0,84.72,268Z" fill="#007dfe"/><path d="M92.25,272.06a2.43,2.43,0,1,0,.713,1.72A2.44,2.44,0,0,0,92.25,272.06Z" fill="#007dfe"/><path d="M96.33,279.58a2.59,2.59,0,0,0-.59,1h4.63a2.59,2.59,0,0,0-.59-1A2.44,2.44,0,0,0,96.33,279.58Z" fill="#007dfe"/><path d="M40.12,233.85a2.44,2.44,0,1,0,0,3.44,2.44,2.44,0,0,0,0-3.44Z" fill="#007dfe"/><path d="M47.65,244.82a2.43,2.43,0,1,0-1.725.718,2.44,2.44,0,0,0,1.725-.718Z" fill="#007dfe"/><path d="M51.73,248.9a2.44,2.44,0,1,0,3.45,0A2.44,2.44,0,0,0,51.73,248.9Z" fill="#007dfe"/><path d="M59.26,256.43a2.44,2.44,0,1,0,3.44,0,2.44,2.44,0,0,0-3.44,0Z" fill="#007dfe"/><path d="M70.23,264a2.43,2.43,0,1,0,.718,1.725A2.44,2.44,0,0,0,70.23,264Z" fill="#007dfe"/><path d="M77.76,274.93a2.43,2.43,0,1,0-1.725.719,2.44,2.44,0,0,0,1.725-.719Z" fill="#007dfe"/><path d="M81.84,279a2.41,2.41,0,0,0-.7,1.55H86a2.41,2.41,0,0,0-.7-1.55,2.44,2.44,0,0,0-3.46,0Z" fill="#007dfe"/><path d="M33.16,244.26a2.44,2.44,0,1,0-3.45,0,2.44,2.44,0,0,0,3.45,0Z" fill="#007dfe"/><path d="M40.69,248.34a2.44,2.44,0,1,0,0,3.44,2.44,2.44,0,0,0,0-3.44Z" fill="#007dfe"/><circle cx="2.44" cy="2.44" r="2.44" transform="translate(44.05 255.15)" fill="#007dfe"/><circle cx="2.44" cy="2.44" r="2.44" transform="translate(51.58 262.68)" fill="#007dfe"/><path d="M59.82,274.37a2.44,2.44,0,1,0,0-3.45,2.44,2.44,0,0,0,0,3.45Z" fill="#007dfe"/><path d="M70.8,278.45a2.43,2.43,0,0,0-4.12,2.12h4.79a2.4,2.4,0,0,0-.67-2.12Z" fill="#007dfe"/><path d="M22.75,247.77a2.44,2.44,0,1,0,3.45,0,2.44,2.44,0,0,0-3.45,0Z" fill="#007dfe"/><path d="M33.73,258.75a2.44,2.44,0,1,0-3.45,0A2.44,2.44,0,0,0,33.73,258.75Z" fill="#007dfe"/><path d="M41.25,266.27a2.43,2.43,0,1,0-1.72.713,2.43,2.43,0,0,0,1.72-.713Z" fill="#007dfe"/><path d="M48.78,273.8a2.43,2.43,0,1,0-1.72.713,2.43,2.43,0,0,0,1.72-.713Z" fill="#007dfe"/><path d="M56.31,277.88a2.44,2.44,0,0,0-4,2.69h4.47a2.44,2.44,0,0,0-.47-2.69Z" fill="#007dfe"/><path d="M15.79,258.18a2.44,2.44,0,1,0,0-3.45A2.44,2.44,0,0,0,15.79,258.18Z" fill="#007dfe"/><path d="M23.32,262.26a2.44,2.44,0,1,0,3.44,0A2.44,2.44,0,0,0,23.32,262.26Z" fill="#007dfe"/><path d="M34.29,269.79A2.43,2.43,0,1,0,35,271.51,2.43,2.43,0,0,0,34.29,269.79Z" fill="#007dfe"/><path d="M41.82,277.32a2.43,2.43,0,0,0-3.6,3.25H42A2.42,2.42,0,0,0,41.82,277.32Z" fill="#007dfe"/><path d="M12.27,265.14a2.43,2.43,0,1,0-1.72.713,2.44,2.44,0,0,0,1.72-.713Z" fill="#007dfe"/><path d="M16.36,269.22a2.44,2.44,0,1,0,3.44,0,2.44,2.44,0,0,0-3.44,0Z" fill="#007dfe"/><path d="M27.33,276.75a2.44,2.44,0,1,0-3.45,3.45,2.8,2.8,0,0,0,.5.37h2.45a2.23,2.23,0,0,0,.5-.37,2.44,2.44,0,0,0,0-3.45Z" fill="#007dfe"/><path d="M5.31,272.1a2.43,2.43,0,1,0-1.72.713,2.43,2.43,0,0,0,1.72-.713Z" fill="#007dfe"/><path d="M12.84,276.18a2.43,2.43,0,1,0,.718,1.725A2.44,2.44,0,0,0,12.84,276.18Z" fill="#007dfe"/><path d="M277.17,279.42a2.4,2.4,0,0,0-.64,1.15h4.72a2.4,2.4,0,0,0-.64-1.15,2.43,2.43,0,0,0-3.44,0Z" fill="#007dfe"/></g></svg>