<svg xmlns="http://www.w3.org/2000/svg" width="22.589" height="18.347" viewBox="0 0 22.589 18.347"><path d="M20.267,52.654c.014.2.014.4.014.6A13.082,13.082,0,0,1,7.109,66.429,13.083,13.083,0,0,1,0,64.35a9.577,9.577,0,0,0,1.118.057A9.272,9.272,0,0,0,6.866,62.43a4.638,4.638,0,0,1-4.329-3.211,5.839,5.839,0,0,0,.874.072,4.9,4.9,0,0,0,1.218-.158A4.63,4.63,0,0,1,.917,54.589v-.057a4.663,4.663,0,0,0,2.093.588,4.637,4.637,0,0,1-1.433-6.192,13.16,13.16,0,0,0,9.546,4.845,5.226,5.226,0,0,1-.115-1.061,4.634,4.634,0,0,1,8.012-3.168,9.115,9.115,0,0,0,2.938-1.118,4.617,4.617,0,0,1-2.035,2.551,9.281,9.281,0,0,0,2.666-.717A9.952,9.952,0,0,1,20.267,52.654Z" transform="translate(0 -48.082)" fill="#297bfa"/></svg>