<svg xmlns="http://www.w3.org/2000/svg" width="132.78" height="260.68" viewBox="0 0 132.78 260.68"><g transform="translate(132.78) rotate(90)" opacity="0.7"><path d="M131.47,132.78v-.36l-.18.18.18.18Z" fill="#297bfa"/><path d="M131.11,132.78l.18-.18-.18-.18v.36Zm.36-128.32v3c1.78-2.08,3.64-4.11,5.6-6.06L138.49,0h-2.81Q133.51,2.17,131.47,4.46Zm0,13.92v3.46A94.931,94.931,0,0,1,151.72,0h-3.13a96.94,96.94,0,0,0-17.12,18.38Zm0,107.62v3.47c.41.57.83,1.14,1.25,1.7l1.4-1.4C133.21,128.53,132.33,127.28,131.47,126Zm0-90.92v4.63A85.87,85.87,0,0,1,167.08,0h-3.8a88,88,0,0,0-31.81,35.08Zm0,73.06v4.62A88.22,88.22,0,0,0,138.89,125l1.41-1.41a85.081,85.081,0,0,1-8.83-15.45ZM259.27,4.62l1.41-1.41Q258.36,1.53,255.92,0h-3.8a84.673,84.673,0,0,1,7.15,4.62Z" fill="#297bfa"/><path d="M131.47,65V82.84a78.2,78.2,0,0,0,13.61,36l1.41-1.41A76.62,76.62,0,0,1,189.25,0h-6.47a78.85,78.85,0,0,0-51.31,65ZM253.08,10.81l1.41-1.41A78.331,78.331,0,0,0,236.42,0H230a76.46,76.46,0,0,1,23.08,10.81Z" fill="#297bfa"/><path d="M209.6,3.92a70,70,0,0,0-58.32,108.69l1.42-1.42A68,68,0,0,1,246.87,17l1.42-1.41A69.55,69.55,0,0,0,209.6,3.92Z" fill="#297bfa"/><path d="M209.6,12.54a61.35,61.35,0,0,0-52.08,93.83l1.43-1.43a59.39,59.39,0,0,1,81.67-81.67l1.43-1.43a61,61,0,0,0-32.45-9.3Z" fill="#297bfa"/><path d="M209.6,21.17a52.71,52.71,0,0,0-45.78,78.9l1.44-1.43a50.75,50.75,0,0,1,69.05-69.06l1.44-1.44a52.44,52.44,0,0,0-26.15-6.97Z" fill="#297bfa"/><path d="M209.6,29.8a44.1,44.1,0,0,0-39.42,63.91l1.46-1.46A42.16,42.16,0,0,1,227.93,36l1.46-1.46A43.89,43.89,0,0,0,209.6,29.8Z" fill="#297bfa"/><path d="M209.6,38.43A35.49,35.49,0,0,0,176.69,87.2l1.52-1.51a33.51,33.51,0,0,1,43.15-43.16L222.88,41a35.38,35.38,0,0,0-13.28-2.57Z" fill="#297bfa"/><path d="M209.6,47.06a26.85,26.85,0,0,0-26.08,33.31l1.65-1.65a24.419,24.419,0,0,1-.47-4.8A24.93,24.93,0,0,1,209.6,49a25.28,25.28,0,0,1,4.8.47l1.65-1.65a26.931,26.931,0,0,0-6.45-.76Z" fill="#297bfa"/><path d="M191.43,72.46l2.35-2.35a16.31,16.31,0,0,1,12-12l2.36-2.36a18.25,18.25,0,0,0-16.71,16.71ZM122.39,123.7l1.97,1.96V0h-1.97Zm-10.2-10.2,1.97,1.96V0h-1.97Zm-10.2-10.2,1.97,1.97V0h-1.97ZM91.79,93.1l1.97,1.96V0H91.79V93.1ZM81.59,82.9l1.97,1.97V0H81.59V82.9ZM71.4,72.7l1.96,1.97V0H71.4ZM61.2,62.5l1.96,1.97V0H61.2ZM51,52.3l1.96,1.97V0H51ZM40.8,42.1l1.96,1.97V0H40.8ZM30.6,31.9l1.96,1.97V0H30.6ZM20.4,21.7l1.96,1.97V0H20.4ZM10.2,11.51l1.96,1.96V0H10.2ZM1.97,0H0V1.31L1.97,3.27Z" fill="#297bfa"/></g></svg>